<?xml version="1.0" encoding="UTF-8" standalone="no"?>
<svg
   xmlns:dc="http://purl.org/dc/elements/1.1/"
   xmlns:cc="http://creativecommons.org/ns#"
   xmlns:rdf="http://www.w3.org/1999/02/22-rdf-syntax-ns#"
   xmlns:svg="http://www.w3.org/2000/svg"
   xmlns="http://www.w3.org/2000/svg"
   height="100"
   width="250"
   version="1.1"
   id="svg3931">
  <title
     id="title3416">Le.Taxi</title>
  <defs
     id="defs3933" />
  <metadata
     id="metadata3936">
    <rdf:RDF>
      <cc:Work
         rdf:about="">
        <dc:format>image/svg+xml</dc:format>
        <dc:type
           rdf:resource="http://purl.org/dc/dcmitype/StillImage" />
        <dc:title>Le.Taxi</dc:title>
        <cc:license
           rdf:resource="" />
      </cc:Work>
    </rdf:RDF>
  </metadata>
  <path
     id="path3485"
     style="fill:#ee2434;fill-opacity:1;fill-rule:nonzero;stroke:none"
     d="m 80.216697,39.653127 c 0,-2.43125 -0.5912,-3.985 -2.43,-3.985 -4.8612,0 -9.72,10.77875 -11.7575,20.0025 7.5825,-0.3925 14.1875,-7.86625 14.1875,-16.0175" />
  <path
     id="path3487"
     style="fill:#ee2434;fill-opacity:1;fill-rule:nonzero;stroke:none"
     d="m 54.887997,2.9281233 c -0.5263,0 -1.035,0.0625 -1.5525,0.0775 l -13.5275,61.4087537 c -0.295,1.2575 -0.3863,2.235 -0.3863,3.1025 0,2.72125 1.2625,3.5975 3.975,3.5975 2.9325,0 5.6613,-2.22 7.4238,-5.4625 0,-0.195 -0.036,-0.3625 -0.036,-0.56375 0,-11.16875 6.32,-34.565 26.2275,-34.565 8.6413,0 10.6763,4.46 10.6763,9.3175 0,11.26375 -10.6763,19.815 -22.3375,20.49125 -0.096,0.975 -0.1888,2.0375 -0.1888,2.9175 0,6.12 2.6175,8.06125 6.0188,8.06125 3.6875,0 8.3437,-2.43625 11.4525,-5.1525 -2.035,11.08 -9.0238,14.38 -16.795,14.38 -6.9638,0 -12.1113,-2.705 -14.1138,-8.9675 -5.3387,7.66 -11.8925,8.9675 -15.9037,8.9675 -5.825,0 -10.3825,-3.4975 -10.3825,-11.6625 0,-1.84 0.285,-3.98 0.7712,-6.3075 L 38.760797,5.8293733 C 20.725797,12.414373 7.8182961,29.679377 7.8182961,50.000627 c 0,26 21.0750009,47.07125 47.0700009,47.07125 25.9962,0 47.071193,-21.07125 47.071193,-47.07125 0,-25.993754 -21.074993,-47.0725037 -47.071193,-47.0725037" />
  <path
     id="path3489"
     style="fill:#1b458f;fill-opacity:1;fill-rule:nonzero;stroke:none"
     d="m 146.1142,30.644377 -30.1,0 c -1.1212,0 -2.0875,0.40125 -2.8725,1.19125 -0.79,0.78125 -1.19,1.7475 -1.19,2.87125 0,1.12625 0.4,2.0925 1.19,2.875 0.7875,0.78875 1.7538,1.19 2.8725,1.19 l 10.9888,0 0,37.6325 c 0,1.11875 0.3987,2.085 1.1837,2.87125 0.7838,0.79 1.7525,1.1925 2.8788,1.1925 1.12,0 2.0862,-0.4025 2.8725,-1.19375 0.7887,-0.7875 1.19,-1.75375 1.19,-2.87 l 0,-37.6325 10.9862,0 c 1.1175,0 2.085,-0.40125 2.8725,-1.19125 0.7913,-0.78875 1.1925,-1.75625 1.1925,-2.87375 0,-1.11375 -0.4012,-2.08 -1.1925,-2.87125 -0.7825,-0.78875 -1.7525,-1.19125 -2.8725,-1.19125" />
  <path
     id="path3491"
     style="fill:#1b458f;fill-opacity:1;fill-rule:nonzero;stroke:none"
     d="m 182.628,74.791877 -16.1038,-41.42375 0,-0.009 -0.01,-0.01 c -0.735,-1.77 -2.0625,-2.705 -3.84,-2.705 -1.2087,0 -2.8537,0.46625 -3.8387,2.6875 l -0.01,0.0175 -0.01,0.0188 -16.0375,41.2525 c -0.2638,0.5825 -0.3975,1.1825 -0.3975,1.78375 0,1.1175 0.3925,2.08 1.1687,2.865 0.7713,0.795 1.735,1.19875 2.8663,1.19875 1.1225,0 2.09,-0.40125 2.8737,-1.1925 0.3925,-0.39125 0.6963,-0.8225 0.9,-1.285 l 0.01,-0.0162 0.01,-0.0188 5.3663,-13.7125 14.1875,0 5.3337,13.71 0.01,0.0238 0.01,0.02 c 0.205,0.45625 0.5063,0.88375 0.8963,1.27375 0.7637,0.79375 1.7212,1.1975 2.8487,1.1975 1.1238,0 2.0925,-0.40125 2.8738,-1.1925 0.7875,-0.7875 1.1887,-1.75375 1.1887,-2.87125 0,-0.5625 -0.1,-1.10625 -0.3,-1.6125 m -25.1837,-17.795 5.2325,-13.48625 5.2212,13.48625 -10.4537,0" />
  <path
     id="path3493"
     style="fill:#1b458f;fill-opacity:1;fill-rule:nonzero;stroke:none"
     d="m 223.693,30.644377 c -1.2,0 -2.1763,0.4125 -2.9063,1.22625 l -0.021,0.0238 -0.017,0.0225 -13.2762,17.01375 -13.2763,-17.01375 -0.015,-0.0188 -0.015,-0.015 c -0.71,-0.82125 -1.6937,-1.23875 -2.9187,-1.23875 -1.1188,0 -2.0875,0.4025 -2.875,1.19375 -0.7863,0.78375 -1.1863,1.75 -1.1863,2.86875 0,0.88625 0.2463,1.6825 0.7325,2.36875 l 0.013,0.0175 0.013,0.015 14.36,18.45 -14.2675,18.32 c -0.5837,0.74 -0.8812,1.60125 -0.8812,2.555 0,1.125 0.4025,2.08875 1.1962,2.86625 0.7838,0.775 1.7488,1.16875 2.8713,1.16875 1.12,0 2.0862,-0.4025 2.8712,-1.195 l 0.036,-0.0362 0.032,-0.0425 13.3075,-17.01375 13.0638,16.805 0,0.002 0,0.004 c 0.7762,0.97875 1.8462,1.47625 3.1837,1.47625 1.12,0 2.0825,-0.395 2.8613,-1.175 0.7787,-0.78125 1.1725,-1.74125 1.1725,-2.86 0,-0.94875 -0.2813,-1.805 -0.84,-2.5425 l 0,-0.005 0,-0.004 -14.2688,-18.325 14.33,-18.45 0.014,-0.015 0.013,-0.0175 c 0.4813,-0.68625 0.7275,-1.48125 0.7275,-2.3675 0,-1.11125 -0.3925,-2.07625 -1.165,-2.86375 -0.7812,-0.795 -1.745,-1.19875 -2.865,-1.19875" />
  <path
     id="path3495"
     style="fill:#1b458f;fill-opacity:1;fill-rule:nonzero;stroke:none"
     d="m 238.1192,30.644377 c -1.1212,0 -2.0912,0.4025 -2.88,1.19375 -0.785,0.78875 -1.185,1.75625 -1.185,2.86875 l 0,41.6975 c 0,1.1175 0.4,2.08375 1.1875,2.87125 0.7813,0.79 1.7513,1.1925 2.8775,1.1925 1.1225,0 2.09,-0.4025 2.8763,-1.195 0.7875,-0.78375 1.1862,-1.75125 1.1862,-2.86875 l 0,-41.6975 c 0,-1.11375 -0.3987,-2.08 -1.1887,-2.87125 -0.7888,-0.78875 -1.7563,-1.19125 -2.8738,-1.19125" />
</svg>
